<?xml version="1.0" encoding="UTF-8" standalone="no"?>
<!DOCTYPE svg PUBLIC "-//W3C//DTD SVG 1.1//EN"
 "http://www.w3.org/Graphics/SVG/1.1/DTD/svg11.dtd">
<!-- Generated by graphviz version 2.43.0 (0)
 -->
<!-- Title: dependency&#45;cruiser output Pages: 1 -->
<svg width="334pt" height="110pt"
 viewBox="0.00 0.00 334.00 110.00" xmlns="http://www.w3.org/2000/svg" xmlns:xlink="http://www.w3.org/1999/xlink">
<g id="graph0" class="graph" transform="scale(1 1) rotate(0) translate(4 106)">
<title>dependency&#45;cruiser output</title>
<polygon fill="white" stroke="transparent" points="-4,4 -4,-106 330,-106 330,4 -4,4"/>
<g id="clust1" class="cluster">
<title>cluster_src</title>
<path fill="#ffffff" stroke="black" stroke-width="2" d="M20,-8C20,-8 306,-8 306,-8 312,-8 318,-14 318,-20 318,-20 318,-82 318,-82 318,-88 312,-94 306,-94 306,-94 20,-94 20,-94 14,-94 8,-88 8,-82 8,-82 8,-20 8,-20 8,-14 14,-8 20,-8"/>
<text text-anchor="middle" x="163" y="-82.8" font-family="Helvetica,sans-Serif" font-weight="bold" font-size="9.00">src</text>
</g>
<g id="clust2" class="cluster">
<title>cluster_src/api</title>
<path fill="#ffffff" stroke="black" stroke-width="2" d="M28,-16C28,-16 298,-16 298,-16 304,-16 310,-22 310,-28 310,-28 310,-56 310,-56 310,-62 304,-68 298,-68 298,-68 28,-68 28,-68 22,-68 16,-62 16,-56 16,-56 16,-28 16,-28 16,-22 22,-16 28,-16"/>
<text text-anchor="middle" x="163" y="-56.8" font-family="Helvetica,sans-Serif" font-weight="bold" font-size="9.00">api</text>
</g>
<!-- src/api/api.consts.ts -->
<g id="node1" class="node">
<title>src/api/api.consts.ts</title>
<g id="a_node1"><a xlink:href="src/api/api.consts.ts" xlink:title="api.consts.ts">
<path fill="#ddfeff" stroke="black" d="M296,-42C296,-42 234,-42 234,-42 231,-42 228,-39 228,-36 228,-36 228,-30 228,-30 228,-27 231,-24 234,-24 234,-24 296,-24 296,-24 299,-24 302,-27 302,-30 302,-30 302,-36 302,-36 302,-39 299,-42 296,-42"/>
<text text-anchor="start" x="236" y="-30.8" font-family="Helvetica,sans-Serif" font-size="9.00">api.consts.ts</text>
</a>
</g>
</g>
<!-- src/api/api.ts -->
<g id="node2" class="node">
<title>src/api/api.ts</title>
<g id="a_node2"><a xlink:href="src/api/api.ts" xlink:title="api.ts">
<path fill="#ddfeff" stroke="black" d="M209,-42C209,-42 167,-42 167,-42 164,-42 161,-39 161,-36 161,-36 161,-30 161,-30 161,-27 164,-24 167,-24 167,-24 209,-24 209,-24 212,-24 215,-27 215,-30 215,-30 215,-36 215,-36 215,-39 212,-42 209,-42"/>
<text text-anchor="start" x="175.5" y="-30.8" font-family="Helvetica,sans-Serif" font-size="9.00">api.ts</text>
</a>
</g>
</g>
<!-- src/api/api.ts&#45;&gt;src/api/api.consts.ts -->
<g id="edge1" class="edge">
<title>src/api/api.ts&#45;&gt;src/api/api.consts.ts</title>
<path fill="none" stroke="#000000" stroke-width="2" stroke-opacity="0.200000" d="M215.23,-33C217.26,-33 219.34,-33 221.43,-33"/>
<polygon fill="#000000" fill-opacity="0.200000" stroke="#000000" stroke-width="2" stroke-opacity="0.200000" points="221.76,-35.1 227.76,-33 221.76,-30.9 221.76,-35.1"/>
</g>
<!-- src/api/clients.ts -->
<g id="node3" class="node">
<title>src/api/clients.ts</title>
<g id="a_node3"><a xlink:href="src/api/clients.ts" xlink:title="clients.ts">
<path fill="#ddfeff" stroke="black" d="M142,-42C142,-42 97,-42 97,-42 94,-42 91,-39 91,-36 91,-36 91,-30 91,-30 91,-27 94,-24 97,-24 97,-24 142,-24 142,-24 145,-24 148,-27 148,-30 148,-30 148,-36 148,-36 148,-39 145,-42 142,-42"/>
<text text-anchor="start" x="99" y="-30.8" font-family="Helvetica,sans-Serif" font-size="9.00">clients.ts</text>
</a>
</g>
</g>
<!-- src/api/clients.ts&#45;&gt;src/api/api.ts -->
<g id="edge2" class="edge">
<title>src/api/clients.ts&#45;&gt;src/api/api.ts</title>
<path fill="none" stroke="#000000" stroke-width="2" stroke-opacity="0.200000" d="M148.32,-33C150.38,-33 152.47,-33 154.56,-33"/>
<polygon fill="#000000" fill-opacity="0.200000" stroke="#000000" stroke-width="2" stroke-opacity="0.200000" points="154.78,-35.1 160.78,-33 154.78,-30.9 154.78,-35.1"/>
</g>
<!-- src/api/index.ts -->
<g id="node4" class="node">
<title>src/api/index.ts</title>
<g id="a_node4"><a xlink:href="src/api/index.ts" xlink:title="index.ts">
<path fill="#ddfeff" stroke="black" d="M72,-42C72,-42 30,-42 30,-42 27,-42 24,-39 24,-36 24,-36 24,-30 24,-30 24,-27 27,-24 30,-24 30,-24 72,-24 72,-24 75,-24 78,-27 78,-30 78,-30 78,-36 78,-36 78,-39 75,-42 72,-42"/>
<text text-anchor="start" x="32.5" y="-30.8" font-family="Helvetica,sans-Serif" font-size="9.00">index.ts</text>
</a>
</g>
</g>
<!-- src/api/index.ts&#45;&gt;src/api/clients.ts -->
<g id="edge3" class="edge">
<title>src/api/index.ts&#45;&gt;src/api/clients.ts</title>
<path fill="none" stroke="#000000" stroke-width="2" stroke-opacity="0.200000" d="M78.28,-33C80.32,-33 82.39,-33 84.46,-33"/>
<polygon fill="#000000" fill-opacity="0.200000" stroke="#000000" stroke-width="2" stroke-opacity="0.200000" points="84.66,-35.1 90.66,-33 84.66,-30.9 84.66,-35.1"/>
</g>
</g>
</svg>
