<?xml version="1.0" encoding="UTF-8" standalone="no"?>
<!DOCTYPE svg PUBLIC "-//W3C//DTD SVG 1.1//EN"
 "http://www.w3.org/Graphics/SVG/1.1/DTD/svg11.dtd">
<!-- Generated by graphviz version 2.43.0 (0)
 -->
<!-- Title: dependency&#45;cruiser output Pages: 1 -->
<svg width="256pt" height="924pt"
 viewBox="0.00 0.00 256.00 924.00" xmlns="http://www.w3.org/2000/svg" xmlns:xlink="http://www.w3.org/1999/xlink">
<g id="graph0" class="graph" transform="scale(1 1) rotate(0) translate(4 920)">
<title>dependency&#45;cruiser output</title>
<polygon fill="white" stroke="transparent" points="-4,4 -4,-920 252,-920 252,4 -4,4"/>
<g id="clust1" class="cluster">
<title>cluster_src</title>
<path fill="#ffffff" stroke="black" stroke-width="2" d="M20,-8C20,-8 228,-8 228,-8 234,-8 240,-14 240,-20 240,-20 240,-896 240,-896 240,-902 234,-908 228,-908 228,-908 20,-908 20,-908 14,-908 8,-902 8,-896 8,-896 8,-20 8,-20 8,-14 14,-8 20,-8"/>
<text text-anchor="middle" x="124" y="-896.8" font-family="Helvetica,sans-Serif" font-weight="bold" font-size="9.00">src</text>
</g>
<g id="clust2" class="cluster">
<title>cluster_src/features</title>
<path fill="#ffffff" stroke="black" stroke-width="2" d="M28,-16C28,-16 220,-16 220,-16 226,-16 232,-22 232,-28 232,-28 232,-870 232,-870 232,-876 226,-882 220,-882 220,-882 28,-882 28,-882 22,-882 16,-876 16,-870 16,-870 16,-28 16,-28 16,-22 22,-16 28,-16"/>
<text text-anchor="middle" x="124" y="-870.8" font-family="Helvetica,sans-Serif" font-weight="bold" font-size="9.00">features</text>
</g>
<g id="clust3" class="cluster">
<title>cluster_src/features/auth</title>
<path fill="#ffffff" stroke="black" stroke-width="2" d="M36,-804C36,-804 82,-804 82,-804 88,-804 94,-810 94,-816 94,-816 94,-844 94,-844 94,-850 88,-856 82,-856 82,-856 36,-856 36,-856 30,-856 24,-850 24,-844 24,-844 24,-816 24,-816 24,-810 30,-804 36,-804"/>
<text text-anchor="middle" x="59" y="-844.8" font-family="Helvetica,sans-Serif" font-weight="bold" font-size="9.00">auth</text>
</g>
<g id="clust4" class="cluster">
<title>cluster_src/features/cases&#45;list</title>
<path fill="#ffffff" stroke="black" stroke-width="2" d="M36,-744C36,-744 82,-744 82,-744 88,-744 94,-750 94,-756 94,-756 94,-784 94,-784 94,-790 88,-796 82,-796 82,-796 36,-796 36,-796 30,-796 24,-790 24,-784 24,-784 24,-756 24,-756 24,-750 30,-744 36,-744"/>
<text text-anchor="middle" x="59" y="-784.8" font-family="Helvetica,sans-Serif" font-weight="bold" font-size="9.00">cases&#45;list</text>
</g>
<g id="clust5" class="cluster">
<title>cluster_src/features/common</title>
<path fill="#ffffff" stroke="black" stroke-width="2" d="M123,-324C123,-324 195,-324 195,-324 201,-324 207,-330 207,-336 207,-336 207,-364 207,-364 207,-370 201,-376 195,-376 195,-376 123,-376 123,-376 117,-376 111,-370 111,-364 111,-364 111,-336 111,-336 111,-330 117,-324 123,-324"/>
<text text-anchor="middle" x="159" y="-364.8" font-family="Helvetica,sans-Serif" font-weight="bold" font-size="9.00">common</text>
</g>
<g id="clust6" class="cluster">
<title>cluster_src/features/display</title>
<path fill="#ffffff" stroke="black" stroke-width="2" d="M136,-384C136,-384 182,-384 182,-384 188,-384 194,-390 194,-396 194,-396 194,-424 194,-424 194,-430 188,-436 182,-436 182,-436 136,-436 136,-436 130,-436 124,-430 124,-424 124,-424 124,-396 124,-396 124,-390 130,-384 136,-384"/>
<text text-anchor="middle" x="159" y="-424.8" font-family="Helvetica,sans-Serif" font-weight="bold" font-size="9.00">display</text>
</g>
<g id="clust7" class="cluster">
<title>cluster_src/features/drugs</title>
<path fill="#ffffff" stroke="black" stroke-width="2" d="M36,-684C36,-684 182,-684 182,-684 188,-684 194,-690 194,-696 194,-696 194,-724 194,-724 194,-730 188,-736 182,-736 182,-736 36,-736 36,-736 30,-736 24,-730 24,-724 24,-724 24,-696 24,-696 24,-690 30,-684 36,-684"/>
<text text-anchor="middle" x="109" y="-724.8" font-family="Helvetica,sans-Serif" font-weight="bold" font-size="9.00">drugs</text>
</g>
<g id="clust8" class="cluster">
<title>cluster_src/features/identification</title>
<path fill="#ffffff" stroke="black" stroke-width="2" d="M36,-444C36,-444 198,-444 198,-444 204,-444 210,-450 210,-456 210,-456 210,-484 210,-484 210,-490 204,-496 198,-496 198,-496 36,-496 36,-496 30,-496 24,-490 24,-484 24,-484 24,-456 24,-456 24,-450 30,-444 36,-444"/>
<text text-anchor="middle" x="117" y="-484.8" font-family="Helvetica,sans-Serif" font-weight="bold" font-size="9.00">identification</text>
</g>
<g id="clust9" class="cluster">
<title>cluster_src/features/info&#45;sender</title>
<path fill="#ffffff" stroke="black" stroke-width="2" d="M36,-504C36,-504 193.5,-504 193.5,-504 199.5,-504 205.5,-510 205.5,-516 205.5,-516 205.5,-544 205.5,-544 205.5,-550 199.5,-556 193.5,-556 193.5,-556 36,-556 36,-556 30,-556 24,-550 24,-544 24,-544 24,-516 24,-516 24,-510 30,-504 36,-504"/>
<text text-anchor="middle" x="114.75" y="-544.8" font-family="Helvetica,sans-Serif" font-weight="bold" font-size="9.00">info&#45;sender</text>
</g>
<g id="clust10" class="cluster">
<title>cluster_src/features/narrative</title>
<path fill="#ffffff" stroke="black" stroke-width="2" d="M36,-564C36,-564 188.5,-564 188.5,-564 194.5,-564 200.5,-570 200.5,-576 200.5,-576 200.5,-604 200.5,-604 200.5,-610 194.5,-616 188.5,-616 188.5,-616 36,-616 36,-616 30,-616 24,-610 24,-604 24,-604 24,-576 24,-576 24,-570 30,-564 36,-564"/>
<text text-anchor="middle" x="112.25" y="-604.8" font-family="Helvetica,sans-Serif" font-weight="bold" font-size="9.00">narrative</text>
</g>
<g id="clust11" class="cluster">
<title>cluster_src/features/patient</title>
<path fill="#ffffff" stroke="black" stroke-width="2" d="M36,-624C36,-624 184.5,-624 184.5,-624 190.5,-624 196.5,-630 196.5,-636 196.5,-636 196.5,-664 196.5,-664 196.5,-670 190.5,-676 184.5,-676 184.5,-676 36,-676 36,-676 30,-676 24,-670 24,-664 24,-664 24,-636 24,-636 24,-630 30,-624 36,-624"/>
<text text-anchor="middle" x="110.25" y="-664.8" font-family="Helvetica,sans-Serif" font-weight="bold" font-size="9.00">patient</text>
</g>
<g id="clust12" class="cluster">
<title>cluster_src/features/primary&#45;source</title>
<path fill="#ffffff" stroke="black" stroke-width="2" d="M36,-264C36,-264 202.5,-264 202.5,-264 208.5,-264 214.5,-270 214.5,-276 214.5,-276 214.5,-304 214.5,-304 214.5,-310 208.5,-316 202.5,-316 202.5,-316 36,-316 36,-316 30,-316 24,-310 24,-304 24,-304 24,-276 24,-276 24,-270 30,-264 36,-264"/>
<text text-anchor="middle" x="119.25" y="-304.8" font-family="Helvetica,sans-Serif" font-weight="bold" font-size="9.00">primary&#45;source</text>
</g>
<g id="clust13" class="cluster">
<title>cluster_src/features/reactions</title>
<path fill="#ffffff" stroke="black" stroke-width="2" d="M36,-24C36,-24 186.5,-24 186.5,-24 192.5,-24 198.5,-30 198.5,-36 198.5,-36 198.5,-64 198.5,-64 198.5,-70 192.5,-76 186.5,-76 186.5,-76 36,-76 36,-76 30,-76 24,-70 24,-64 24,-64 24,-36 24,-36 24,-30 30,-24 36,-24"/>
<text text-anchor="middle" x="111.25" y="-64.8" font-family="Helvetica,sans-Serif" font-weight="bold" font-size="9.00">reactions</text>
</g>
<g id="clust14" class="cluster">
<title>cluster_src/features/references</title>
<path fill="#ffffff" stroke="black" stroke-width="2" d="M36,-84C36,-84 192,-84 192,-84 198,-84 204,-90 204,-96 204,-96 204,-124 204,-124 204,-130 198,-136 192,-136 192,-136 36,-136 36,-136 30,-136 24,-130 24,-124 24,-124 24,-96 24,-96 24,-90 30,-84 36,-84"/>
<text text-anchor="middle" x="114" y="-124.8" font-family="Helvetica,sans-Serif" font-weight="bold" font-size="9.00">references</text>
</g>
<g id="clust15" class="cluster">
<title>cluster_src/features/results</title>
<path fill="#ffffff" stroke="black" stroke-width="2" d="M36,-144C36,-144 182,-144 182,-144 188,-144 194,-150 194,-156 194,-156 194,-184 194,-184 194,-190 188,-196 182,-196 182,-196 36,-196 36,-196 30,-196 24,-190 24,-184 24,-184 24,-156 24,-156 24,-150 30,-144 36,-144"/>
<text text-anchor="middle" x="109" y="-184.8" font-family="Helvetica,sans-Serif" font-weight="bold" font-size="9.00">results</text>
</g>
<g id="clust16" class="cluster">
<title>cluster_src/features/study&#45;identification</title>
<path fill="#ffffff" stroke="black" stroke-width="2" d="M36,-204C36,-204 212,-204 212,-204 218,-204 224,-210 224,-216 224,-216 224,-244 224,-244 224,-250 218,-256 212,-256 212,-256 36,-256 36,-256 30,-256 24,-250 24,-244 24,-244 24,-216 24,-216 24,-210 30,-204 36,-204"/>
<text text-anchor="middle" x="124" y="-244.8" font-family="Helvetica,sans-Serif" font-weight="bold" font-size="9.00">study&#45;identification</text>
</g>
<!-- src/features/auth/slice.js -->
<g id="node1" class="node">
<title>src/features/auth/slice.js</title>
<g id="a_node1"><a xlink:href="src/features/auth/slice.js" xlink:title="slice.js">
<path fill="#ccffcc" stroke="black" d="M80,-830C80,-830 38,-830 38,-830 35,-830 32,-827 32,-824 32,-824 32,-818 32,-818 32,-815 35,-812 38,-812 38,-812 80,-812 80,-812 83,-812 86,-815 86,-818 86,-818 86,-824 86,-824 86,-827 83,-830 80,-830"/>
<text text-anchor="start" x="44" y="-818.8" font-family="Helvetica,sans-Serif" font-size="9.00">slice.js</text>
</a>
</g>
</g>
<!-- src/features/cases&#45;list/slice.js -->
<g id="node2" class="node">
<title>src/features/cases&#45;list/slice.js</title>
<g id="a_node2"><a xlink:href="src/features/cases-list/slice.js" xlink:title="slice.js">
<path fill="#ccffcc" stroke="black" d="M80,-770C80,-770 38,-770 38,-770 35,-770 32,-767 32,-764 32,-764 32,-758 32,-758 32,-755 35,-752 38,-752 38,-752 80,-752 80,-752 83,-752 86,-755 86,-758 86,-758 86,-764 86,-764 86,-767 83,-770 80,-770"/>
<text text-anchor="start" x="44" y="-758.8" font-family="Helvetica,sans-Serif" font-size="9.00">slice.js</text>
</a>
</g>
</g>
<!-- src/features/common/changekeys.js -->
<g id="node3" class="node">
<title>src/features/common/changekeys.js</title>
<g id="a_node3"><a xlink:href="src/features/common/changekeys.js" xlink:title="changekeys.js">
<path fill="#ffffcc" stroke="black" d="M193,-350C193,-350 125,-350 125,-350 122,-350 119,-347 119,-344 119,-344 119,-338 119,-338 119,-335 122,-332 125,-332 125,-332 193,-332 193,-332 196,-332 199,-335 199,-338 199,-338 199,-344 199,-344 199,-347 196,-350 193,-350"/>
<text text-anchor="start" x="127" y="-338.8" font-family="Helvetica,sans-Serif" font-size="9.00">changekeys.js</text>
</a>
</g>
</g>
<!-- src/features/display/slice.js -->
<g id="node4" class="node">
<title>src/features/display/slice.js</title>
<g id="a_node4"><a xlink:href="src/features/display/slice.js" xlink:title="slice.js">
<path fill="#ffffcc" stroke="black" d="M180,-410C180,-410 138,-410 138,-410 135,-410 132,-407 132,-404 132,-404 132,-398 132,-398 132,-395 135,-392 138,-392 138,-392 180,-392 180,-392 183,-392 186,-395 186,-398 186,-398 186,-404 186,-404 186,-407 183,-410 180,-410"/>
<text text-anchor="start" x="144" y="-398.8" font-family="Helvetica,sans-Serif" font-size="9.00">slice.js</text>
</a>
</g>
</g>
<!-- src/features/display/slice.js&#45;&gt;src/features/common/changekeys.js -->
<g id="edge1" class="edge">
<title>src/features/display/slice.js&#45;&gt;src/features/common/changekeys.js</title>
<path fill="none" stroke="#000000" stroke-width="2" stroke-opacity="0.200000" d="M159,-391.9C159,-380.12 159,-368.33 159,-356.54"/>
<polygon fill="#000000" fill-opacity="0.200000" stroke="#000000" stroke-width="2" stroke-opacity="0.200000" points="161.1,-356.37 159,-350.38 156.9,-356.38 161.1,-356.37"/>
</g>
<!-- src/features/drugs/drugs.js -->
<g id="node5" class="node">
<title>src/features/drugs/drugs.js</title>
<g id="a_node5"><a xlink:href="src/features/drugs/drugs.js" xlink:title="drugs.js">
<path fill="#ffffcc" stroke="black" d="M180,-710C180,-710 138,-710 138,-710 135,-710 132,-707 132,-704 132,-704 132,-698 132,-698 132,-695 135,-692 138,-692 138,-692 180,-692 180,-692 183,-692 186,-695 186,-698 186,-698 186,-704 186,-704 186,-707 183,-710 180,-710"/>
<text text-anchor="start" x="140.5" y="-698.8" font-family="Helvetica,sans-Serif" font-size="9.00">drugs.js</text>
</a>
</g>
</g>
<!-- src/features/drugs/slice.js -->
<g id="node6" class="node">
<title>src/features/drugs/slice.js</title>
<g id="a_node6"><a xlink:href="src/features/drugs/slice.js" xlink:title="slice.js">
<path fill="#ffffcc" stroke="black" d="M80,-710C80,-710 38,-710 38,-710 35,-710 32,-707 32,-704 32,-704 32,-698 32,-698 32,-695 35,-692 38,-692 38,-692 80,-692 80,-692 83,-692 86,-695 86,-698 86,-698 86,-704 86,-704 86,-707 83,-710 80,-710"/>
<text text-anchor="start" x="44" y="-698.8" font-family="Helvetica,sans-Serif" font-size="9.00">slice.js</text>
</a>
</g>
</g>
<!-- src/features/drugs/slice.js&#45;&gt;src/features/common/changekeys.js -->
<g id="edge2" class="edge">
<title>src/features/drugs/slice.js&#45;&gt;src/features/common/changekeys.js</title>
<path fill="none" stroke="#000000" stroke-width="2" stroke-opacity="0.200000" d="M80.8,-691.98C86.01,-688.68 90.97,-684.39 94,-679 110.22,-650.12 86.45,-410.25 102,-381 108.41,-368.94 120.26,-359.68 131.41,-353.12"/>
<polygon fill="#000000" fill-opacity="0.200000" stroke="#000000" stroke-width="2" stroke-opacity="0.200000" points="132.59,-354.87 136.81,-350.11 130.54,-351.2 132.59,-354.87"/>
</g>
<!-- src/features/drugs/slice.js&#45;&gt;src/features/display/slice.js -->
<g id="edge3" class="edge">
<title>src/features/drugs/slice.js&#45;&gt;src/features/display/slice.js</title>
<path fill="none" stroke="#000000" stroke-width="2" stroke-opacity="0.200000" d="M80.77,-691.97C85.98,-688.67 90.95,-684.38 94,-679 107.03,-655.97 89.5,-464.32 102,-441 108.45,-428.96 120.31,-419.7 131.45,-413.14"/>
<polygon fill="#000000" fill-opacity="0.200000" stroke="#000000" stroke-width="2" stroke-opacity="0.200000" points="132.62,-414.89 136.84,-410.13 130.58,-411.22 132.62,-414.89"/>
</g>
<!-- src/features/drugs/slice.js&#45;&gt;src/features/drugs/drugs.js -->
<g id="edge4" class="edge">
<title>src/features/drugs/slice.js&#45;&gt;src/features/drugs/drugs.js</title>
<path fill="none" stroke="#000000" stroke-width="2" stroke-opacity="0.200000" d="M86,-701C98.19,-701 112.82,-701 125.71,-701"/>
<polygon fill="#000000" fill-opacity="0.200000" stroke="#000000" stroke-width="2" stroke-opacity="0.200000" points="125.87,-703.1 131.87,-701 125.87,-698.9 125.87,-703.1"/>
</g>
<!-- src/features/identification/identification.js -->
<g id="node7" class="node">
<title>src/features/identification/identification.js</title>
<g id="a_node7"><a xlink:href="src/features/identification/identification.js" xlink:title="identification.js">
<path fill="#ffffcc" stroke="black" d="M196,-470C196,-470 122,-470 122,-470 119,-470 116,-467 116,-464 116,-464 116,-458 116,-458 116,-455 119,-452 122,-452 122,-452 196,-452 196,-452 199,-452 202,-455 202,-458 202,-458 202,-464 202,-464 202,-467 199,-470 196,-470"/>
<text text-anchor="start" x="124" y="-458.8" font-family="Helvetica,sans-Serif" font-size="9.00">identification.js</text>
</a>
</g>
</g>
<!-- src/features/identification/slice.js -->
<g id="node8" class="node">
<title>src/features/identification/slice.js</title>
<g id="a_node8"><a xlink:href="src/features/identification/slice.js" xlink:title="slice.js">
<path fill="#ffffcc" stroke="black" d="M80,-470C80,-470 38,-470 38,-470 35,-470 32,-467 32,-464 32,-464 32,-458 32,-458 32,-455 35,-452 38,-452 38,-452 80,-452 80,-452 83,-452 86,-455 86,-458 86,-458 86,-464 86,-464 86,-467 83,-470 80,-470"/>
<text text-anchor="start" x="44" y="-458.8" font-family="Helvetica,sans-Serif" font-size="9.00">slice.js</text>
</a>
</g>
</g>
<!-- src/features/identification/slice.js&#45;&gt;src/features/common/changekeys.js -->
<g id="edge5" class="edge">
<title>src/features/identification/slice.js&#45;&gt;src/features/common/changekeys.js</title>
<path fill="none" stroke="#000000" stroke-width="2" stroke-opacity="0.200000" d="M63.21,-451.77C69.05,-435.95 82.62,-403.23 102,-381 111.58,-370.01 124.75,-360.41 135.91,-353.37"/>
<polygon fill="#000000" fill-opacity="0.200000" stroke="#000000" stroke-width="2" stroke-opacity="0.200000" points="137.19,-355.05 141.21,-350.12 134.99,-351.47 137.19,-355.05"/>
</g>
<!-- src/features/identification/slice.js&#45;&gt;src/features/display/slice.js -->
<g id="edge6" class="edge">
<title>src/features/identification/slice.js&#45;&gt;src/features/display/slice.js</title>
<path fill="none" stroke="#000000" stroke-width="2" stroke-opacity="0.200000" d="M74.88,-451.89C91.67,-441.61 119.07,-424.83 137.79,-413.37"/>
<polygon fill="#000000" fill-opacity="0.200000" stroke="#000000" stroke-width="2" stroke-opacity="0.200000" points="139.28,-414.93 143.3,-410 137.08,-411.34 139.28,-414.93"/>
</g>
<!-- src/features/identification/slice.js&#45;&gt;src/features/identification/identification.js -->
<g id="edge7" class="edge">
<title>src/features/identification/slice.js&#45;&gt;src/features/identification/identification.js</title>
<path fill="none" stroke="#000000" stroke-width="2" stroke-opacity="0.200000" d="M86,-461C93.33,-461 101.53,-461 109.71,-461"/>
<polygon fill="#000000" fill-opacity="0.200000" stroke="#000000" stroke-width="2" stroke-opacity="0.200000" points="109.94,-463.1 115.94,-461 109.94,-458.9 109.94,-463.1"/>
</g>
<!-- src/features/info&#45;sender/info&#45;sender.js -->
<g id="node9" class="node">
<title>src/features/info&#45;sender/info&#45;sender.js</title>
<g id="a_node9"><a xlink:href="src/features/info-sender/info-sender.js" xlink:title="info&#45;sender.js">
<path fill="#ffffcc" stroke="black" d="M191.5,-530C191.5,-530 126.5,-530 126.5,-530 123.5,-530 120.5,-527 120.5,-524 120.5,-524 120.5,-518 120.5,-518 120.5,-515 123.5,-512 126.5,-512 126.5,-512 191.5,-512 191.5,-512 194.5,-512 197.5,-515 197.5,-518 197.5,-518 197.5,-524 197.5,-524 197.5,-527 194.5,-530 191.5,-530"/>
<text text-anchor="start" x="128.5" y="-518.8" font-family="Helvetica,sans-Serif" font-size="9.00">info&#45;sender.js</text>
</a>
</g>
</g>
<!-- src/features/info&#45;sender/slice.js -->
<g id="node10" class="node">
<title>src/features/info&#45;sender/slice.js</title>
<g id="a_node10"><a xlink:href="src/features/info-sender/slice.js" xlink:title="slice.js">
<path fill="#ffffcc" stroke="black" d="M80,-530C80,-530 38,-530 38,-530 35,-530 32,-527 32,-524 32,-524 32,-518 32,-518 32,-515 35,-512 38,-512 38,-512 80,-512 80,-512 83,-512 86,-515 86,-518 86,-518 86,-524 86,-524 86,-527 83,-530 80,-530"/>
<text text-anchor="start" x="44" y="-518.8" font-family="Helvetica,sans-Serif" font-size="9.00">slice.js</text>
</a>
</g>
</g>
<!-- src/features/info&#45;sender/slice.js&#45;&gt;src/features/common/changekeys.js -->
<g id="edge8" class="edge">
<title>src/features/info&#45;sender/slice.js&#45;&gt;src/features/common/changekeys.js</title>
<path fill="none" stroke="#000000" stroke-width="2" stroke-opacity="0.200000" d="M80.65,-511.9C85.86,-508.6 90.86,-504.33 94,-499 107.33,-476.35 89.19,-403.95 102,-381 108.71,-368.99 120.71,-359.69 131.89,-353.09"/>
<polygon fill="#000000" fill-opacity="0.200000" stroke="#000000" stroke-width="2" stroke-opacity="0.200000" points="133.07,-354.83 137.28,-350.07 131.02,-351.17 133.07,-354.83"/>
</g>
<!-- src/features/info&#45;sender/slice.js&#45;&gt;src/features/display/slice.js -->
<g id="edge9" class="edge">
<title>src/features/info&#45;sender/slice.js&#45;&gt;src/features/display/slice.js</title>
<path fill="none" stroke="#000000" stroke-width="2" stroke-opacity="0.200000" d="M80.06,-511.98C85.39,-508.64 90.6,-504.34 94,-499 107.97,-477.05 88.54,-463.27 102,-441 109.17,-429.14 121.34,-419.81 132.51,-413.16"/>
<polygon fill="#000000" fill-opacity="0.200000" stroke="#000000" stroke-width="2" stroke-opacity="0.200000" points="133.71,-414.9 137.89,-410.11 131.63,-411.25 133.71,-414.9"/>
</g>
<!-- src/features/info&#45;sender/slice.js&#45;&gt;src/features/info&#45;sender/info&#45;sender.js -->
<g id="edge10" class="edge">
<title>src/features/info&#45;sender/slice.js&#45;&gt;src/features/info&#45;sender/info&#45;sender.js</title>
<path fill="none" stroke="#000000" stroke-width="2" stroke-opacity="0.200000" d="M86,-521C94.66,-521 104.55,-521 114.17,-521"/>
<polygon fill="#000000" fill-opacity="0.200000" stroke="#000000" stroke-width="2" stroke-opacity="0.200000" points="114.43,-523.1 120.43,-521 114.43,-518.9 114.43,-523.1"/>
</g>
<!-- src/features/narrative/narrative.js -->
<g id="node11" class="node">
<title>src/features/narrative/narrative.js</title>
<g id="a_node11"><a xlink:href="src/features/narrative/narrative.js" xlink:title="narrative.js">
<path fill="#ffffcc" stroke="black" d="M186.5,-590C186.5,-590 131.5,-590 131.5,-590 128.5,-590 125.5,-587 125.5,-584 125.5,-584 125.5,-578 125.5,-578 125.5,-575 128.5,-572 131.5,-572 131.5,-572 186.5,-572 186.5,-572 189.5,-572 192.5,-575 192.5,-578 192.5,-578 192.5,-584 192.5,-584 192.5,-587 189.5,-590 186.5,-590"/>
<text text-anchor="start" x="133.5" y="-578.8" font-family="Helvetica,sans-Serif" font-size="9.00">narrative.js</text>
</a>
</g>
</g>
<!-- src/features/narrative/slice.js -->
<g id="node12" class="node">
<title>src/features/narrative/slice.js</title>
<g id="a_node12"><a xlink:href="src/features/narrative/slice.js" xlink:title="slice.js">
<path fill="#ffffcc" stroke="black" d="M80,-590C80,-590 38,-590 38,-590 35,-590 32,-587 32,-584 32,-584 32,-578 32,-578 32,-575 35,-572 38,-572 38,-572 80,-572 80,-572 83,-572 86,-575 86,-578 86,-578 86,-584 86,-584 86,-587 83,-590 80,-590"/>
<text text-anchor="start" x="44" y="-578.8" font-family="Helvetica,sans-Serif" font-size="9.00">slice.js</text>
</a>
</g>
</g>
<!-- src/features/narrative/slice.js&#45;&gt;src/features/common/changekeys.js -->
<g id="edge11" class="edge">
<title>src/features/narrative/slice.js&#45;&gt;src/features/common/changekeys.js</title>
<path fill="none" stroke="#000000" stroke-width="2" stroke-opacity="0.200000" d="M80.73,-571.95C85.94,-568.64 90.92,-564.37 94,-559 113.7,-524.65 83.1,-415.79 102,-381 108.57,-368.91 120.56,-359.6 131.76,-353.02"/>
<polygon fill="#000000" fill-opacity="0.200000" stroke="#000000" stroke-width="2" stroke-opacity="0.200000" points="132.95,-354.76 137.18,-350.01 130.91,-351.09 132.95,-354.76"/>
</g>
<!-- src/features/narrative/slice.js&#45;&gt;src/features/display/slice.js -->
<g id="edge12" class="edge">
<title>src/features/narrative/slice.js&#45;&gt;src/features/display/slice.js</title>
<path fill="none" stroke="#000000" stroke-width="2" stroke-opacity="0.200000" d="M80.65,-571.9C85.86,-568.6 90.86,-564.33 94,-559 107.33,-536.35 89.19,-463.95 102,-441 108.71,-428.99 120.71,-419.69 131.89,-413.09"/>
<polygon fill="#000000" fill-opacity="0.200000" stroke="#000000" stroke-width="2" stroke-opacity="0.200000" points="133.07,-414.83 137.28,-410.07 131.02,-411.17 133.07,-414.83"/>
</g>
<!-- src/features/narrative/slice.js&#45;&gt;src/features/narrative/narrative.js -->
<g id="edge13" class="edge">
<title>src/features/narrative/slice.js&#45;&gt;src/features/narrative/narrative.js</title>
<path fill="none" stroke="#000000" stroke-width="2" stroke-opacity="0.200000" d="M86,-581C96.15,-581 107.99,-581 119.11,-581"/>
<polygon fill="#000000" fill-opacity="0.200000" stroke="#000000" stroke-width="2" stroke-opacity="0.200000" points="119.19,-583.1 125.19,-581 119.19,-578.9 119.19,-583.1"/>
</g>
<!-- src/features/patient/patient.js -->
<g id="node13" class="node">
<title>src/features/patient/patient.js</title>
<g id="a_node13"><a xlink:href="src/features/patient/patient.js" xlink:title="patient.js">
<path fill="#ffffcc" stroke="black" d="M182.5,-650C182.5,-650 135.5,-650 135.5,-650 132.5,-650 129.5,-647 129.5,-644 129.5,-644 129.5,-638 129.5,-638 129.5,-635 132.5,-632 135.5,-632 135.5,-632 182.5,-632 182.5,-632 185.5,-632 188.5,-635 188.5,-638 188.5,-638 188.5,-644 188.5,-644 188.5,-647 185.5,-650 182.5,-650"/>
<text text-anchor="start" x="137.5" y="-638.8" font-family="Helvetica,sans-Serif" font-size="9.00">patient.js</text>
</a>
</g>
</g>
<!-- src/features/patient/slice.js -->
<g id="node14" class="node">
<title>src/features/patient/slice.js</title>
<g id="a_node14"><a xlink:href="src/features/patient/slice.js" xlink:title="slice.js">
<path fill="#ffffcc" stroke="black" d="M80,-650C80,-650 38,-650 38,-650 35,-650 32,-647 32,-644 32,-644 32,-638 32,-638 32,-635 35,-632 38,-632 38,-632 80,-632 80,-632 83,-632 86,-635 86,-638 86,-638 86,-644 86,-644 86,-647 83,-650 80,-650"/>
<text text-anchor="start" x="44" y="-638.8" font-family="Helvetica,sans-Serif" font-size="9.00">slice.js</text>
</a>
</g>
</g>
<!-- src/features/patient/slice.js&#45;&gt;src/features/common/changekeys.js -->
<g id="edge14" class="edge">
<title>src/features/patient/slice.js&#45;&gt;src/features/common/changekeys.js</title>
<path fill="none" stroke="#000000" stroke-width="2" stroke-opacity="0.200000" d="M80.77,-631.97C85.98,-628.67 90.95,-624.38 94,-619 107.03,-595.97 89.5,-404.32 102,-381 108.45,-368.96 120.31,-359.7 131.45,-353.14"/>
<polygon fill="#000000" fill-opacity="0.200000" stroke="#000000" stroke-width="2" stroke-opacity="0.200000" points="132.62,-354.89 136.84,-350.13 130.58,-351.22 132.62,-354.89"/>
</g>
<!-- src/features/patient/slice.js&#45;&gt;src/features/display/slice.js -->
<g id="edge15" class="edge">
<title>src/features/patient/slice.js&#45;&gt;src/features/display/slice.js</title>
<path fill="none" stroke="#000000" stroke-width="2" stroke-opacity="0.200000" d="M80.73,-631.95C85.94,-628.64 90.92,-624.37 94,-619 113.7,-584.65 83.1,-475.79 102,-441 108.57,-428.91 120.56,-419.6 131.76,-413.02"/>
<polygon fill="#000000" fill-opacity="0.200000" stroke="#000000" stroke-width="2" stroke-opacity="0.200000" points="132.95,-414.76 137.18,-410.01 130.91,-411.09 132.95,-414.76"/>
</g>
<!-- src/features/patient/slice.js&#45;&gt;src/features/patient/patient.js -->
<g id="edge16" class="edge">
<title>src/features/patient/slice.js&#45;&gt;src/features/patient/patient.js</title>
<path fill="none" stroke="#000000" stroke-width="2" stroke-opacity="0.200000" d="M86,-641C97.4,-641 110.94,-641 123.19,-641"/>
<polygon fill="#000000" fill-opacity="0.200000" stroke="#000000" stroke-width="2" stroke-opacity="0.200000" points="123.46,-643.1 129.46,-641 123.46,-638.9 123.46,-643.1"/>
</g>
<!-- src/features/primary&#45;source/primary&#45;source.js -->
<g id="node15" class="node">
<title>src/features/primary&#45;source/primary&#45;source.js</title>
<g id="a_node15"><a xlink:href="src/features/primary-source/primary-source.js" xlink:title="primary&#45;source.js">
<path fill="#ffffcc" stroke="black" d="M200.5,-290C200.5,-290 117.5,-290 117.5,-290 114.5,-290 111.5,-287 111.5,-284 111.5,-284 111.5,-278 111.5,-278 111.5,-275 114.5,-272 117.5,-272 117.5,-272 200.5,-272 200.5,-272 203.5,-272 206.5,-275 206.5,-278 206.5,-278 206.5,-284 206.5,-284 206.5,-287 203.5,-290 200.5,-290"/>
<text text-anchor="start" x="119.5" y="-278.8" font-family="Helvetica,sans-Serif" font-size="9.00">primary&#45;source.js</text>
</a>
</g>
</g>
<!-- src/features/primary&#45;source/slice.js -->
<g id="node16" class="node">
<title>src/features/primary&#45;source/slice.js</title>
<g id="a_node16"><a xlink:href="src/features/primary-source/slice.js" xlink:title="slice.js">
<path fill="#ffffcc" stroke="black" d="M80,-290C80,-290 38,-290 38,-290 35,-290 32,-287 32,-284 32,-284 32,-278 32,-278 32,-275 35,-272 38,-272 38,-272 80,-272 80,-272 83,-272 86,-275 86,-278 86,-278 86,-284 86,-284 86,-287 83,-290 80,-290"/>
<text text-anchor="start" x="44" y="-278.8" font-family="Helvetica,sans-Serif" font-size="9.00">slice.js</text>
</a>
</g>
</g>
<!-- src/features/primary&#45;source/slice.js&#45;&gt;src/features/common/changekeys.js -->
<g id="edge17" class="edge">
<title>src/features/primary&#45;source/slice.js&#45;&gt;src/features/common/changekeys.js</title>
<path fill="none" stroke="#000000" stroke-width="2" stroke-opacity="0.200000" d="M68.25,-290.17C76.22,-298.58 88.96,-310.92 102,-319 108.52,-323.04 115.91,-326.57 123.13,-329.56"/>
<polygon fill="#000000" fill-opacity="0.200000" stroke="#000000" stroke-width="2" stroke-opacity="0.200000" points="122.78,-331.68 129.13,-331.93 124.33,-327.77 122.78,-331.68"/>
</g>
<!-- src/features/primary&#45;source/slice.js&#45;&gt;src/features/display/slice.js -->
<g id="edge18" class="edge">
<title>src/features/primary&#45;source/slice.js&#45;&gt;src/features/display/slice.js</title>
<path fill="none" stroke="#000000" stroke-width="2" stroke-opacity="0.200000" d="M61.49,-290.17C65.06,-309.26 75.82,-353.61 102,-379 108.64,-385.44 117.39,-390.06 125.99,-393.34"/>
<polygon fill="#000000" fill-opacity="0.200000" stroke="#000000" stroke-width="2" stroke-opacity="0.200000" points="125.54,-395.41 131.9,-395.41 126.93,-391.45 125.54,-395.41"/>
</g>
<!-- src/features/primary&#45;source/slice.js&#45;&gt;src/features/primary&#45;source/primary&#45;source.js -->
<g id="edge19" class="edge">
<title>src/features/primary&#45;source/slice.js&#45;&gt;src/features/primary&#45;source/primary&#45;source.js</title>
<path fill="none" stroke="#000000" stroke-width="2" stroke-opacity="0.200000" d="M86,-281C92,-281 98.58,-281 105.26,-281"/>
<polygon fill="#000000" fill-opacity="0.200000" stroke="#000000" stroke-width="2" stroke-opacity="0.200000" points="105.4,-283.1 111.4,-281 105.4,-278.9 105.4,-283.1"/>
</g>
<!-- src/features/reactions/reaction.js -->
<g id="node17" class="node">
<title>src/features/reactions/reaction.js</title>
<g id="a_node17"><a xlink:href="src/features/reactions/reaction.js" xlink:title="reaction.js">
<path fill="#ffffcc" stroke="black" d="M184.5,-50C184.5,-50 133.5,-50 133.5,-50 130.5,-50 127.5,-47 127.5,-44 127.5,-44 127.5,-38 127.5,-38 127.5,-35 130.5,-32 133.5,-32 133.5,-32 184.5,-32 184.5,-32 187.5,-32 190.5,-35 190.5,-38 190.5,-38 190.5,-44 190.5,-44 190.5,-47 187.5,-50 184.5,-50"/>
<text text-anchor="start" x="135.5" y="-38.8" font-family="Helvetica,sans-Serif" font-size="9.00">reaction.js</text>
</a>
</g>
</g>
<!-- src/features/reactions/slice.js -->
<g id="node18" class="node">
<title>src/features/reactions/slice.js</title>
<g id="a_node18"><a xlink:href="src/features/reactions/slice.js" xlink:title="slice.js">
<path fill="#ffffcc" stroke="black" d="M80,-50C80,-50 38,-50 38,-50 35,-50 32,-47 32,-44 32,-44 32,-38 32,-38 32,-35 35,-32 38,-32 38,-32 80,-32 80,-32 83,-32 86,-35 86,-38 86,-38 86,-44 86,-44 86,-47 83,-50 80,-50"/>
<text text-anchor="start" x="44" y="-38.8" font-family="Helvetica,sans-Serif" font-size="9.00">slice.js</text>
</a>
</g>
</g>
<!-- src/features/reactions/slice.js&#45;&gt;src/features/common/changekeys.js -->
<g id="edge20" class="edge">
<title>src/features/reactions/slice.js&#45;&gt;src/features/common/changekeys.js</title>
<path fill="none" stroke="#000000" stroke-width="2" stroke-opacity="0.200000" d="M71.11,-50.24C79.1,-57.63 89.27,-68.76 94,-81 103.54,-105.68 86.73,-297.39 102,-319 105.03,-323.29 109.04,-326.75 113.51,-329.53"/>
<polygon fill="#000000" fill-opacity="0.200000" stroke="#000000" stroke-width="2" stroke-opacity="0.200000" points="112.68,-331.47 118.95,-332.49 114.69,-327.78 112.68,-331.47"/>
</g>
<!-- src/features/reactions/slice.js&#45;&gt;src/features/display/slice.js -->
<g id="edge21" class="edge">
<title>src/features/reactions/slice.js&#45;&gt;src/features/display/slice.js</title>
<path fill="none" stroke="#000000" stroke-width="2" stroke-opacity="0.200000" d="M71.13,-50.23C79.14,-57.62 89.31,-68.74 94,-81 105.84,-111.93 82.98,-351.88 102,-379 107.66,-387.07 116.76,-392.18 126,-395.42"/>
<polygon fill="#000000" fill-opacity="0.200000" stroke="#000000" stroke-width="2" stroke-opacity="0.200000" points="125.38,-397.43 131.74,-397.2 126.63,-393.42 125.38,-397.43"/>
</g>
<!-- src/features/reactions/slice.js&#45;&gt;src/features/reactions/reaction.js -->
<g id="edge22" class="edge">
<title>src/features/reactions/slice.js&#45;&gt;src/features/reactions/reaction.js</title>
<path fill="none" stroke="#000000" stroke-width="2" stroke-opacity="0.200000" d="M86,-41C96.82,-41 109.57,-41 121.31,-41"/>
<polygon fill="#000000" fill-opacity="0.200000" stroke="#000000" stroke-width="2" stroke-opacity="0.200000" points="121.35,-43.1 127.34,-41 121.34,-38.9 121.35,-43.1"/>
</g>
<!-- src/features/references/references.js -->
<g id="node19" class="node">
<title>src/features/references/references.js</title>
<g id="a_node19"><a xlink:href="src/features/references/references.js" xlink:title="references.js">
<path fill="#ffffcc" stroke="black" d="M190,-110C190,-110 128,-110 128,-110 125,-110 122,-107 122,-104 122,-104 122,-98 122,-98 122,-95 125,-92 128,-92 128,-92 190,-92 190,-92 193,-92 196,-95 196,-98 196,-98 196,-104 196,-104 196,-107 193,-110 190,-110"/>
<text text-anchor="start" x="130" y="-98.8" font-family="Helvetica,sans-Serif" font-size="9.00">references.js</text>
</a>
</g>
</g>
<!-- src/features/references/slice.js -->
<g id="node20" class="node">
<title>src/features/references/slice.js</title>
<g id="a_node20"><a xlink:href="src/features/references/slice.js" xlink:title="slice.js">
<path fill="#ffffcc" stroke="black" d="M80,-110C80,-110 38,-110 38,-110 35,-110 32,-107 32,-104 32,-104 32,-98 32,-98 32,-95 35,-92 38,-92 38,-92 80,-92 80,-92 83,-92 86,-95 86,-98 86,-98 86,-104 86,-104 86,-107 83,-110 80,-110"/>
<text text-anchor="start" x="44" y="-98.8" font-family="Helvetica,sans-Serif" font-size="9.00">slice.js</text>
</a>
</g>
</g>
<!-- src/features/references/slice.js&#45;&gt;src/features/common/changekeys.js -->
<g id="edge23" class="edge">
<title>src/features/references/slice.js&#45;&gt;src/features/common/changekeys.js</title>
<path fill="none" stroke="#000000" stroke-width="2" stroke-opacity="0.200000" d="M71.07,-110.26C79.04,-117.66 89.2,-128.79 94,-141 101.25,-159.42 90.49,-302.89 102,-319 105.01,-323.21 108.96,-326.62 113.37,-329.38"/>
<polygon fill="#000000" fill-opacity="0.200000" stroke="#000000" stroke-width="2" stroke-opacity="0.200000" points="112.45,-331.27 118.72,-332.32 114.47,-327.59 112.45,-331.27"/>
</g>
<!-- src/features/references/slice.js&#45;&gt;src/features/display/slice.js -->
<g id="edge24" class="edge">
<title>src/features/references/slice.js&#45;&gt;src/features/display/slice.js</title>
<path fill="none" stroke="#000000" stroke-width="2" stroke-opacity="0.200000" d="M71.11,-110.24C79.1,-117.63 89.27,-128.76 94,-141 103.54,-165.68 86.73,-357.39 102,-379 107.69,-387.05 116.8,-392.16 126.03,-395.4"/>
<polygon fill="#000000" fill-opacity="0.200000" stroke="#000000" stroke-width="2" stroke-opacity="0.200000" points="125.41,-397.4 131.77,-397.18 126.66,-393.39 125.41,-397.4"/>
</g>
<!-- src/features/references/slice.js&#45;&gt;src/features/references/references.js -->
<g id="edge25" class="edge">
<title>src/features/references/slice.js&#45;&gt;src/features/references/references.js</title>
<path fill="none" stroke="#000000" stroke-width="2" stroke-opacity="0.200000" d="M86,-101C95.11,-101 105.6,-101 115.69,-101"/>
<polygon fill="#000000" fill-opacity="0.200000" stroke="#000000" stroke-width="2" stroke-opacity="0.200000" points="115.91,-103.1 121.91,-101 115.91,-98.9 115.91,-103.1"/>
</g>
<!-- src/features/results/result.js -->
<g id="node21" class="node">
<title>src/features/results/result.js</title>
<g id="a_node21"><a xlink:href="src/features/results/result.js" xlink:title="result.js">
<path fill="#ffffcc" stroke="black" d="M180,-170C180,-170 138,-170 138,-170 135,-170 132,-167 132,-164 132,-164 132,-158 132,-158 132,-155 135,-152 138,-152 138,-152 180,-152 180,-152 183,-152 186,-155 186,-158 186,-158 186,-164 186,-164 186,-167 183,-170 180,-170"/>
<text text-anchor="start" x="141" y="-158.8" font-family="Helvetica,sans-Serif" font-size="9.00">result.js</text>
</a>
</g>
</g>
<!-- src/features/results/slice.js -->
<g id="node22" class="node">
<title>src/features/results/slice.js</title>
<g id="a_node22"><a xlink:href="src/features/results/slice.js" xlink:title="slice.js">
<path fill="#ffffcc" stroke="black" d="M80,-170C80,-170 38,-170 38,-170 35,-170 32,-167 32,-164 32,-164 32,-158 32,-158 32,-155 35,-152 38,-152 38,-152 80,-152 80,-152 83,-152 86,-155 86,-158 86,-158 86,-164 86,-164 86,-167 83,-170 80,-170"/>
<text text-anchor="start" x="44" y="-158.8" font-family="Helvetica,sans-Serif" font-size="9.00">slice.js</text>
</a>
</g>
</g>
<!-- src/features/results/slice.js&#45;&gt;src/features/common/changekeys.js -->
<g id="edge26" class="edge">
<title>src/features/results/slice.js&#45;&gt;src/features/common/changekeys.js</title>
<path fill="none" stroke="#000000" stroke-width="2" stroke-opacity="0.200000" d="M70.99,-170.29C78.92,-177.71 89.06,-188.84 94,-201 103.9,-225.35 86.47,-297.8 102,-319 105.06,-323.18 109.04,-326.57 113.46,-329.31"/>
<polygon fill="#000000" fill-opacity="0.200000" stroke="#000000" stroke-width="2" stroke-opacity="0.200000" points="112.56,-331.21 118.83,-332.24 114.57,-327.52 112.56,-331.21"/>
</g>
<!-- src/features/results/slice.js&#45;&gt;src/features/display/slice.js -->
<g id="edge27" class="edge">
<title>src/features/results/slice.js&#45;&gt;src/features/display/slice.js</title>
<path fill="none" stroke="#000000" stroke-width="2" stroke-opacity="0.200000" d="M71.07,-170.26C79.04,-177.66 89.2,-188.79 94,-201 101.25,-219.42 90.49,-362.89 102,-379 107.74,-387.02 116.86,-392.12 126.09,-395.36"/>
<polygon fill="#000000" fill-opacity="0.200000" stroke="#000000" stroke-width="2" stroke-opacity="0.200000" points="125.46,-397.36 131.82,-397.14 126.71,-393.35 125.46,-397.36"/>
</g>
<!-- src/features/results/slice.js&#45;&gt;src/features/results/result.js -->
<g id="edge28" class="edge">
<title>src/features/results/slice.js&#45;&gt;src/features/results/result.js</title>
<path fill="none" stroke="#000000" stroke-width="2" stroke-opacity="0.200000" d="M86,-161C98.19,-161 112.82,-161 125.71,-161"/>
<polygon fill="#000000" fill-opacity="0.200000" stroke="#000000" stroke-width="2" stroke-opacity="0.200000" points="125.87,-163.1 131.87,-161 125.87,-158.9 125.87,-163.1"/>
</g>
<!-- src/features/study&#45;identification/slice.js -->
<g id="node23" class="node">
<title>src/features/study&#45;identification/slice.js</title>
<g id="a_node23"><a xlink:href="src/features/study-identification/slice.js" xlink:title="slice.js">
<path fill="#ffffcc" stroke="black" d="M80,-230C80,-230 38,-230 38,-230 35,-230 32,-227 32,-224 32,-224 32,-218 32,-218 32,-215 35,-212 38,-212 38,-212 80,-212 80,-212 83,-212 86,-215 86,-218 86,-218 86,-224 86,-224 86,-227 83,-230 80,-230"/>
<text text-anchor="start" x="44" y="-218.8" font-family="Helvetica,sans-Serif" font-size="9.00">slice.js</text>
</a>
</g>
</g>
<!-- src/features/study&#45;identification/slice.js&#45;&gt;src/features/common/changekeys.js -->
<g id="edge29" class="edge">
<title>src/features/study&#45;identification/slice.js&#45;&gt;src/features/common/changekeys.js</title>
<path fill="none" stroke="#000000" stroke-width="2" stroke-opacity="0.200000" d="M70.43,-230.08C78.27,-237.55 88.56,-248.85 94,-261 104.63,-284.75 85.91,-298.55 102,-319 105.2,-323.07 109.27,-326.39 113.74,-329.1"/>
<polygon fill="#000000" fill-opacity="0.200000" stroke="#000000" stroke-width="2" stroke-opacity="0.200000" points="112.87,-331.01 119.15,-332 114.85,-327.31 112.87,-331.01"/>
</g>
<!-- src/features/study&#45;identification/slice.js&#45;&gt;src/features/display/slice.js -->
<g id="edge30" class="edge">
<title>src/features/study&#45;identification/slice.js&#45;&gt;src/features/display/slice.js</title>
<path fill="none" stroke="#000000" stroke-width="2" stroke-opacity="0.200000" d="M70.99,-230.29C78.92,-237.71 89.06,-248.84 94,-261 103.9,-285.35 86.47,-357.8 102,-379 107.77,-386.88 116.8,-391.94 125.93,-395.19"/>
<polygon fill="#000000" fill-opacity="0.200000" stroke="#000000" stroke-width="2" stroke-opacity="0.200000" points="125.56,-397.27 131.92,-397.07 126.83,-393.27 125.56,-397.27"/>
</g>
<!-- src/features/study&#45;identification/study&#45;identification.js -->
<g id="node24" class="node">
<title>src/features/study&#45;identification/study&#45;identification.js</title>
<g id="a_node24"><a xlink:href="src/features/study-identification/study-identification.js" xlink:title="study&#45;identification.js">
<path fill="#ffffcc" stroke="black" d="M210,-230C210,-230 108,-230 108,-230 105,-230 102,-227 102,-224 102,-224 102,-218 102,-218 102,-215 105,-212 108,-212 108,-212 210,-212 210,-212 213,-212 216,-215 216,-218 216,-218 216,-224 216,-224 216,-227 213,-230 210,-230"/>
<text text-anchor="start" x="110" y="-218.8" font-family="Helvetica,sans-Serif" font-size="9.00">study&#45;identification.js</text>
</a>
</g>
</g>
<!-- src/features/study&#45;identification/slice.js&#45;&gt;src/features/study&#45;identification/study&#45;identification.js -->
<g id="edge31" class="edge">
<title>src/features/study&#45;identification/slice.js&#45;&gt;src/features/study&#45;identification/study&#45;identification.js</title>
<path fill="none" stroke="#000000" stroke-width="2" stroke-opacity="0.200000" d="M86,-221C89.12,-221 92.4,-221 95.77,-221"/>
<polygon fill="#000000" fill-opacity="0.200000" stroke="#000000" stroke-width="2" stroke-opacity="0.200000" points="95.92,-223.1 101.92,-221 95.92,-218.9 95.92,-223.1"/>
</g>
</g>
</svg>
